<svg xmlns="http://www.w3.org/2000/svg" viewBox="0 72 880 913.5" width="880" height="913.5" style="background:#ffffff">
<defs><marker id="ah" markerWidth="12" markerHeight="8" refX="12" refY="4" orient="auto"><polygon points="0 0, 12 4, 0 8" fill="#333333"/></marker><marker id="ah-light" markerWidth="12" markerHeight="8" refX="12" refY="4" orient="auto"><polygon points="0 0, 12 4, 0 8" fill="#999999"/></marker></defs>





















































<g transform="scale(1 1.5)"><rect x="30" y="60" width="820" height="165" rx="6" fill="#ffffff" stroke="#333333" stroke-width="2" stroke-dasharray="8,4"/><text x="440" y="83" font-family="Arial, 'Helvetica Neue', Helvetica, 'PingFang SC', 'Microsoft YaHei', sans-serif" font-size="20" fill="#333333" text-anchor="middle" dominant-baseline="central" font-weight="bold" transform="translate(440 83) scale(1 0.6666666666666666) translate(-440 -83)" style="font-family: Arial, sans-serif;"><tspan x="440" y="83">Анонимная дуэль Chatbot Arena</tspan></text><rect x="60" y="100" width="280" height="110" rx="6" fill="#f0f0f0" stroke="#333333" stroke-width="2"/><text x="200" y="120" font-family="Arial, 'Helvetica Neue', Helvetica, 'PingFang SC', 'Microsoft YaHei', sans-serif" font-size="16" fill="#333333" text-anchor="middle" dominant-baseline="central" font-weight="bold" transform="translate(200 120) scale(1 0.6666666666666666) translate(-200 -120)" style="font-family: Arial, sans-serif;"><tspan x="200" y="120">Model A (анонимно)</tspan></text><rect x="75" y="135" width="250" height="60" rx="4" fill="#f5f5f5" stroke="#999999" stroke-width="2"/><text x="85" y="152" font-family="'Courier New', Courier, monospace" font-size="12" fill="#333333" text-anchor="start" dominant-baseline="central" transform="translate(85 152) scale(1 0.6666666666666666) translate(-85 -152)" style="font-family: Arial, sans-serif;"><tspan x="85" y="144.8">«Возврат оформлен и поступит на ваш </tspan><tspan x="85" y="159.20000000000002">счёт</tspan></text><text x="85" y="170" font-family="'Courier New', Courier, monospace" font-size="12" fill="#333333" text-anchor="start" dominant-baseline="central" transform="translate(85 170) scale(1 0.6666666666666666) translate(-85 -170)" style="font-family: Arial, sans-serif;"><tspan x="85" y="170">в течение 3–5 рабочих дней»</tspan></text><text x="440" y="155" font-family="Arial, 'Helvetica Neue', Helvetica, 'PingFang SC', 'Microsoft YaHei', sans-serif" font-size="24" fill="#666666" text-anchor="middle" dominant-baseline="central" font-weight="bold" transform="translate(440 155) scale(1 0.6666666666666666) translate(-440 -155)" style="font-family: Arial, sans-serif;"><tspan x="440" y="155">VS</tspan></text><rect x="540" y="100" width="280" height="110" rx="6" fill="#f0f0f0" stroke="#333333" stroke-width="2"/><text x="680" y="120" font-family="Arial, 'Helvetica Neue', Helvetica, 'PingFang SC', 'Microsoft YaHei', sans-serif" font-size="16" fill="#333333" text-anchor="middle" dominant-baseline="central" font-weight="bold" transform="translate(680 120) scale(1 0.6666666666666666) translate(-680 -120)" style="font-family: Arial, sans-serif;"><tspan x="680" y="120">Model B (анонимно)</tspan></text><rect x="555" y="135" width="250" height="60" rx="4" fill="#f5f5f5" stroke="#999999" stroke-width="2"/><text x="565" y="152" font-family="'Courier New', Courier, monospace" font-size="12" fill="#333333" text-anchor="start" dominant-baseline="central" transform="translate(565 152) scale(1 0.6666666666666666) translate(-565 -152)" style="font-family: Arial, sans-serif;"><tspan x="565" y="152">«Хорошо, возврат обработают»</tspan></text><text x="565" y="170" font-family="'Courier New', Courier, monospace" font-size="12" fill="#333333" text-anchor="start" dominant-baseline="central"/><line x1="440" y1="180" x2="440" y2="235" stroke="#333333" stroke-width="2" marker-end="url(#ah)"/><text x="510" y="250" font-family="Arial, 'Helvetica Neue', Helvetica, 'PingFang SC', 'Microsoft YaHei', sans-serif" font-size="16" fill="#666666" text-anchor="middle" dominant-baseline="central" font-weight="bold" transform="translate(510 250) scale(1 0.6666666666666666) translate(-510 -250)" style="font-family: Arial, sans-serif;"><tspan x="510" y="250">Слепой выбор пользователя → A лучше</tspan></text><rect x="30" y="285" width="820" height="80" rx="4" fill="#f5f5f5" stroke="#999999" stroke-width="2"/><text x="440" y="307" font-family="Arial, 'Helvetica Neue', Helvetica, 'PingFang SC', 'Microsoft YaHei', sans-serif" font-size="16" fill="#333333" text-anchor="middle" dominant-baseline="central" font-weight="bold" transform="translate(440 307) scale(1 0.6666666666666666) translate(-440 -307)" style="font-family: Arial, sans-serif;"><tspan x="440" y="307">Формула обновления Elo</tspan></text><text x="60" y="330" font-family="'Courier New', Courier, monospace" font-size="13" fill="#333333" text-anchor="start" dominant-baseline="central" transform="translate(60 330) scale(1 0.6666666666666666) translate(-60 -330)" style="font-family: Arial, sans-serif;"><tspan x="60" y="330">Ожидаемая победа E_A = 1/(1+10^((R_B-R_A)/400)) | Обновление: R_A' = R_A + K*(S_A-E_A)</tspan></text><text x="440" y="390" font-family="Arial, 'Helvetica Neue', Helvetica, 'PingFang SC', 'Microsoft YaHei', sans-serif" font-size="20" fill="#333333" text-anchor="middle" dominant-baseline="central" font-weight="bold" transform="translate(440 390) scale(1 0.6666666666666666) translate(-440 -390)" style="font-family: Arial, sans-serif;"><tspan x="440" y="390">Текущий рейтинг (пример)</tspan></text><text x="80" y="418" font-family="Arial, 'Helvetica Neue', Helvetica, 'PingFang SC', 'Microsoft YaHei', sans-serif" font-size="16" fill="#333333" text-anchor="middle" dominant-baseline="central" font-weight="bold" transform="translate(80 418) scale(1 0.6666666666666666) translate(-80 -418)" style="font-family: Arial, sans-serif;"><tspan x="80" y="418">Место</tspan></text><text x="250" y="418" font-family="Arial, 'Helvetica Neue', Helvetica, 'PingFang SC', 'Microsoft YaHei', sans-serif" font-size="16" fill="#333333" text-anchor="middle" dominant-baseline="central" font-weight="bold" transform="translate(250 418) scale(1 0.6666666666666666) translate(-250 -418)" style="font-family: Arial, sans-serif;"><tspan x="250" y="418">Модель</tspan></text><text x="480" y="418" font-family="Arial, 'Helvetica Neue', Helvetica, 'PingFang SC', 'Microsoft YaHei', sans-serif" font-size="16" fill="#333333" text-anchor="middle" dominant-baseline="central" font-weight="bold" transform="translate(480 418) scale(1 0.6666666666666666) translate(-480 -418)" style="font-family: Arial, sans-serif;"><tspan x="480" y="418">Elo</tspan></text><text x="660" y="418" font-family="Arial, 'Helvetica Neue', Helvetica, 'PingFang SC', 'Microsoft YaHei', sans-serif" font-size="16" fill="#333333" text-anchor="middle" dominant-baseline="central" font-weight="bold" transform="translate(660 418) scale(1 0.6666666666666666) translate(-660 -418)" style="font-family: Arial, sans-serif;"><tspan x="660" y="418">Победы vs #2</tspan></text><line x1="50" y1="430" x2="830" y2="430" stroke="#999999" stroke-width="2"/><text x="80" y="450" font-family="Arial, 'Helvetica Neue', Helvetica, 'PingFang SC', 'Microsoft YaHei', sans-serif" font-size="16" fill="#999999" text-anchor="middle" dominant-baseline="central" font-weight="bold" transform="translate(80 450) scale(1 0.6666666666666666) translate(-80 -450)" style="font-family: Arial, sans-serif;"><tspan x="80" y="450">1</tspan></text><text x="250" y="450" font-family="Arial, 'Helvetica Neue', Helvetica, 'PingFang SC', 'Microsoft YaHei', sans-serif" font-size="16" fill="#999999" text-anchor="middle" dominant-baseline="central" font-weight="normal" transform="translate(250 450) scale(1 0.6666666666666666) translate(-250 -450)" style="font-family: Arial, sans-serif;"><tspan x="250" y="450">Claude 4 Opus</tspan></text><text x="480" y="450" font-family="Arial, 'Helvetica Neue', Helvetica, 'PingFang SC', 'Microsoft YaHei', sans-serif" font-size="16" fill="#999999" text-anchor="middle" dominant-baseline="central" font-weight="bold" transform="translate(480 450) scale(1 0.6666666666666666) translate(-480 -450)" style="font-family: Arial, sans-serif;"><tspan x="480" y="450">1352</tspan></text><text x="660" y="450" font-family="Arial, 'Helvetica Neue', Helvetica, 'PingFang SC', 'Microsoft YaHei', sans-serif" font-size="16" fill="#666666" text-anchor="middle" dominant-baseline="central" font-weight="normal" transform="translate(660 450) scale(1 0.6666666666666666) translate(-660 -450)" style="font-family: Arial, sans-serif;"><tspan x="660" y="450">—</tspan></text><text x="80" y="472" font-family="Arial, 'Helvetica Neue', Helvetica, 'PingFang SC', 'Microsoft YaHei', sans-serif" font-size="16" fill="#d0d0d0" text-anchor="middle" dominant-baseline="central" font-weight="bold" transform="translate(80 472) scale(1 0.6666666666666666) translate(-80 -472)" style="font-family: Arial, sans-serif;"><tspan x="80" y="472">2</tspan></text><text x="250" y="472" font-family="Arial, 'Helvetica Neue', Helvetica, 'PingFang SC', 'Microsoft YaHei', sans-serif" font-size="16" fill="#d0d0d0" text-anchor="middle" dominant-baseline="central" font-weight="normal" transform="translate(250 472) scale(1 0.6666666666666666) translate(-250 -472)" style="font-family: Arial, sans-serif;"><tspan x="250" y="472">GPT-5</tspan></text><text x="480" y="472" font-family="Arial, 'Helvetica Neue', Helvetica, 'PingFang SC', 'Microsoft YaHei', sans-serif" font-size="16" fill="#d0d0d0" text-anchor="middle" dominant-baseline="central" font-weight="bold" transform="translate(480 472) scale(1 0.6666666666666666) translate(-480 -472)" style="font-family: Arial, sans-serif;"><tspan x="480" y="472">1318</tspan></text><text x="660" y="472" font-family="Arial, 'Helvetica Neue', Helvetica, 'PingFang SC', 'Microsoft YaHei', sans-serif" font-size="16" fill="#666666" text-anchor="middle" dominant-baseline="central" font-weight="normal" transform="translate(660 472) scale(1 0.6666666666666666) translate(-660 -472)" style="font-family: Arial, sans-serif;"><tspan x="660" y="472">—</tspan></text><text x="80" y="494" font-family="Arial, 'Helvetica Neue', Helvetica, 'PingFang SC', 'Microsoft YaHei', sans-serif" font-size="16" fill="#333333" text-anchor="middle" dominant-baseline="central" font-weight="bold" transform="translate(80 494) scale(1 0.6666666666666666) translate(-80 -494)" style="font-family: Arial, sans-serif;"><tspan x="80" y="494">3</tspan></text><text x="250" y="494" font-family="Arial, 'Helvetica Neue', Helvetica, 'PingFang SC', 'Microsoft YaHei', sans-serif" font-size="16" fill="#333333" text-anchor="middle" dominant-baseline="central" font-weight="normal" transform="translate(250 494) scale(1 0.6666666666666666) translate(-250 -494)" style="font-family: Arial, sans-serif;"><tspan x="250" y="494">Gemini 2.5 Pro</tspan></text><text x="480" y="494" font-family="Arial, 'Helvetica Neue', Helvetica, 'PingFang SC', 'Microsoft YaHei', sans-serif" font-size="16" fill="#333333" text-anchor="middle" dominant-baseline="central" font-weight="bold" transform="translate(480 494) scale(1 0.6666666666666666) translate(-480 -494)" style="font-family: Arial, sans-serif;"><tspan x="480" y="494">1290</tspan></text><text x="660" y="494" font-family="Arial, 'Helvetica Neue', Helvetica, 'PingFang SC', 'Microsoft YaHei', sans-serif" font-size="16" fill="#666666" text-anchor="middle" dominant-baseline="central" font-weight="normal" transform="translate(660 494) scale(1 0.6666666666666666) translate(-660 -494)" style="font-family: Arial, sans-serif;"><tspan x="660" y="494">45%</tspan></text><text x="80" y="516" font-family="Arial, 'Helvetica Neue', Helvetica, 'PingFang SC', 'Microsoft YaHei', sans-serif" font-size="16" fill="#333333" text-anchor="middle" dominant-baseline="central" font-weight="bold" transform="translate(80 516) scale(1 0.6666666666666666) translate(-80 -516)" style="font-family: Arial, sans-serif;"><tspan x="80" y="516">4</tspan></text><text x="250" y="516" font-family="Arial, 'Helvetica Neue', Helvetica, 'PingFang SC', 'Microsoft YaHei', sans-serif" font-size="16" fill="#333333" text-anchor="middle" dominant-baseline="central" font-weight="normal" transform="translate(250 516) scale(1 0.6666666666666666) translate(-250 -516)" style="font-family: Arial, sans-serif;"><tspan x="250" y="516">DeepSeek R2</tspan></text><text x="480" y="516" font-family="Arial, 'Helvetica Neue', Helvetica, 'PingFang SC', 'Microsoft YaHei', sans-serif" font-size="16" fill="#333333" text-anchor="middle" dominant-baseline="central" font-weight="bold" transform="translate(480 516) scale(1 0.6666666666666666) translate(-480 -516)" style="font-family: Arial, sans-serif;"><tspan x="480" y="516">1265</tspan></text><text x="660" y="516" font-family="Arial, 'Helvetica Neue', Helvetica, 'PingFang SC', 'Microsoft YaHei', sans-serif" font-size="16" fill="#666666" text-anchor="middle" dominant-baseline="central" font-weight="normal" transform="translate(660 516) scale(1 0.6666666666666666) translate(-660 -516)" style="font-family: Arial, sans-serif;"><tspan x="660" y="516">42%</tspan></text><text x="80" y="538" font-family="Arial, 'Helvetica Neue', Helvetica, 'PingFang SC', 'Microsoft YaHei', sans-serif" font-size="16" fill="#333333" text-anchor="middle" dominant-baseline="central" font-weight="bold" transform="translate(80 538) scale(1 0.6666666666666666) translate(-80 -538)" style="font-family: Arial, sans-serif;"><tspan x="80" y="538">5</tspan></text><text x="250" y="538" font-family="Arial, 'Helvetica Neue', Helvetica, 'PingFang SC', 'Microsoft YaHei', sans-serif" font-size="16" fill="#333333" text-anchor="middle" dominant-baseline="central" font-weight="normal" transform="translate(250 538) scale(1 0.6666666666666666) translate(-250 -538)" style="font-family: Arial, sans-serif;"><tspan x="250" y="538">Qwen 3 Max</tspan></text><text x="480" y="538" font-family="Arial, 'Helvetica Neue', Helvetica, 'PingFang SC', 'Microsoft YaHei', sans-serif" font-size="16" fill="#333333" text-anchor="middle" dominant-baseline="central" font-weight="bold" transform="translate(480 538) scale(1 0.6666666666666666) translate(-480 -538)" style="font-family: Arial, sans-serif;"><tspan x="480" y="538">1230</tspan></text><text x="660" y="538" font-family="Arial, 'Helvetica Neue', Helvetica, 'PingFang SC', 'Microsoft YaHei', sans-serif" font-size="16" fill="#666666" text-anchor="middle" dominant-baseline="central" font-weight="normal" transform="translate(660 538) scale(1 0.6666666666666666) translate(-660 -538)" style="font-family: Arial, sans-serif;"><tspan x="660" y="538">39%</tspan></text><text x="80" y="560" font-family="Arial, 'Helvetica Neue', Helvetica, 'PingFang SC', 'Microsoft YaHei', sans-serif" font-size="16" fill="#333333" text-anchor="middle" dominant-baseline="central" font-weight="bold" transform="translate(80 560) scale(1 0.6666666666666666) translate(-80 -560)" style="font-family: Arial, sans-serif;"><tspan x="80" y="560">6</tspan></text><text x="250" y="560" font-family="Arial, 'Helvetica Neue', Helvetica, 'PingFang SC', 'Microsoft YaHei', sans-serif" font-size="16" fill="#333333" text-anchor="middle" dominant-baseline="central" font-weight="normal" transform="translate(250 560) scale(1 0.6666666666666666) translate(-250 -560)" style="font-family: Arial, sans-serif;"><tspan x="250" y="560">Llama 4 405B</tspan></text><text x="480" y="560" font-family="Arial, 'Helvetica Neue', Helvetica, 'PingFang SC', 'Microsoft YaHei', sans-serif" font-size="16" fill="#333333" text-anchor="middle" dominant-baseline="central" font-weight="bold" transform="translate(480 560) scale(1 0.6666666666666666) translate(-480 -560)" style="font-family: Arial, sans-serif;"><tspan x="480" y="560">1198</tspan></text><text x="660" y="560" font-family="Arial, 'Helvetica Neue', Helvetica, 'PingFang SC', 'Microsoft YaHei', sans-serif" font-size="16" fill="#666666" text-anchor="middle" dominant-baseline="central" font-weight="normal" transform="translate(660 560) scale(1 0.6666666666666666) translate(-660 -560)" style="font-family: Arial, sans-serif;"><tspan x="660" y="560">36%</tspan></text><line x1="50" y1="482" x2="830" y2="482" stroke="#999999" stroke-width="2" stroke-dasharray="8,4"/><rect x="100" y="590" width="680" height="55" rx="6" fill="#d0d0d0" stroke="#333333" stroke-width="2"/><text x="440" y="610" font-family="Arial, 'Helvetica Neue', Helvetica, 'PingFang SC', 'Microsoft YaHei', sans-serif" font-size="16" fill="#333333" text-anchor="middle" dominant-baseline="central" font-weight="bold" transform="translate(440 610) scale(1 0.6666666666666666) translate(-440 -610)" style="font-family: Arial, sans-serif;"><tspan x="440" y="610">GRPO: попарное сравнение в обучении с подкреплением</tspan></text><text x="440" y="632" font-family="Arial, 'Helvetica Neue', Helvetica, 'PingFang SC', 'Microsoft YaHei', sans-serif" font-size="14" fill="#666666" text-anchor="middle" dominant-baseline="central" font-weight="normal" transform="translate(440 632) scale(1 0.6666666666666666) translate(-440 -632)" style="font-family: Arial, sans-serif;"><tspan x="440" y="623.6">Набор ответов → нормализация относительного преимущества → обновление политики (без явной </tspan><tspan x="440" y="640.4">модели вознаграждения)</tspan></text></g></svg>
