<svg xmlns="http://www.w3.org/2000/svg" viewBox="0 22 880 980" width="880" height="980" style="background:#ffffff">
<defs>
<marker id="ah" markerWidth="12" markerHeight="8" refX="12" refY="4" orient="auto" markerUnits="userSpaceOnUse"><polygon points="0 0, 12 4, 0 8" fill="#333333"/></marker>
<marker id="ah-s" markerWidth="10" markerHeight="7" refX="10" refY="3.5" orient="auto" markerUnits="userSpaceOnUse"><polygon points="0 0, 10 3.5, 0 7" fill="#666666"/></marker>
<marker id="ah-r" markerWidth="10" markerHeight="7" refX="0" refY="3.5" orient="auto" markerUnits="userSpaceOnUse"><polygon points="10 0, 0 3.5, 10 7" fill="#666666"/></marker>
</defs>
<style>
.t{font-family:Arial,'Helvetica Neue',Helvetica,'PingFang SC','Microsoft YaHei',sans-serif;fill:#333333;text-anchor:middle;dominant-baseline:central}
.l{font-family:Arial,'Helvetica Neue',Helvetica,'PingFang SC','Microsoft YaHei',sans-serif;fill:#333333;text-anchor:start;dominant-baseline:central}
.h{font-size:17px;font-weight:bold}
.m{font-size:14px}
.n{font-size:12.5px;fill:#666666}
.c{font-size:12.5px;fill:#666666;font-family:'SF Mono',Menlo,Consolas,monospace}
</style>

<!-- Симулятор пользователя -->






<!-- Agent -->






<!-- Диалог -->




<!-- Общая среда -->
















<!-- Повторное чтение -->



<!-- Проверка -->



















<g transform="scale(1 2)"><rect x="40" y="20" width="270" height="86" rx="6" fill="#f0f0f0" stroke="#333333" stroke-width="2"/><text class="t h" x="175" y="40" transform="translate(175 40) scale(1 0.5) translate(-175 -40)" style="font-family: Arial, sans-serif;"><tspan x="175" y="29.8">Симулятор пользователя </tspan><tspan x="175" y="50.2">(LLM)</tspan></text><text class="l n" x="56" y="62" transform="translate(56 62) scale(1 0.5) translate(-56 -62)" style="font-family: Arial, sans-serif;"><tspan x="56" y="54.5">known_info: John Smith / 555-123-2002 / во </tspan><tspan x="56" y="69.5">Франции</tspan></text><text class="l n" x="56" y="80" transform="translate(56 80) scale(1 0.5) translate(-56 -80)" style="font-family: Arial, sans-serif;"><tspan x="56" y="72.5">task_instructions: постепенное раскрытие </tspan><tspan x="56" y="87.5">· эмоции · опора на факты</tspan></text><text class="l n" x="56" y="96" transform="translate(56 96) scale(1 0.5) translate(-56 -96)" style="font-family: Arial, sans-serif;"><tspan x="56" y="88.5">Приёмка: решением считается только </tspan><tspan x="56" y="103.5">excellent</tspan></text><rect x="570" y="20" width="270" height="86" rx="6" fill="#f0f0f0" stroke="#333333" stroke-width="2"/><text class="t h" x="705" y="40" transform="translate(705 40) scale(1 0.5) translate(-705 -40)" style="font-family: Arial, sans-serif;"><tspan x="705" y="40">Агент (оцениваемый)</tspan></text><text class="l n" x="586" y="62" transform="translate(586 62) scale(1 0.5) translate(-586 -62)" style="font-family: Arial, sans-serif;"><tspan x="586" y="54.5">Вход: заявка + правила предметной </tspan><tspan x="586" y="69.5">области</tspan></text><text class="l n" x="586" y="80" transform="translate(586 80) scale(1 0.5) translate(-586 -80)" style="font-family: Arial, sans-serif;"><tspan x="586" y="80">Скрыто: реальное состояние устройства</tspan></text><text class="l n" x="586" y="96" transform="translate(586 96) scale(1 0.5) translate(-586 -96)" style="font-family: Arial, sans-serif;"><tspan x="586" y="88.5">Может лишь направлять пользователя, </tspan><tspan x="586" y="103.5">не действовать за него</tspan></text><line x1="316" y1="63" x2="560" y2="63" stroke="#666666" stroke-width="1.5" marker-end="url(#ah-s)" marker-start="url(#ah-r)"/><text class="t n" x="438" y="50" transform="translate(438 50) scale(1 0.5) translate(-438 -50)" style="font-family: Arial, sans-serif;"><tspan x="438" y="50">Многоходовый диалог</tspan></text><text class="t n" x="438" y="80" transform="translate(438 80) scale(1 0.5) translate(-438 -80)" style="font-family: Arial, sans-serif;"><tspan x="438" y="80">Постепенное раскрытие данных</tspan></text><rect x="40" y="146" width="800" height="150" rx="6" fill="#f3f0e8" stroke="#333333" stroke-width="2"/><text class="t h" x="440" y="166" transform="translate(440 166) scale(1 0.5) translate(-440 -166)" style="font-family: Arial, sans-serif;"><tspan x="440" y="166">Общая среда (обе стороны меняют состояние)</tspan></text><rect x="60" y="182" width="370" height="98" rx="5" fill="#ffffff" stroke="#666666" stroke-width="1.5"/><text class="t m" x="245" y="200" font-weight="bold" transform="translate(245 200) scale(1 0.5) translate(-245 -200)" style="font-family: Arial, sans-serif;"><tspan x="245" y="200">Состояние устройства</tspan></text><text class="l n" x="76" y="222" transform="translate(76 222) scale(1 0.5) translate(-76 -222)" style="font-family: Arial, sans-serif;"><tspan x="76" y="214.5">Авиарежим ON · роуминг данных OFF · экономия трафика </tspan><tspan x="76" y="229.5">· остаток трафика</tspan></text><text class="l c" x="76" y="246" transform="translate(76 246) scale(1 0.5) translate(-76 -246)" style="font-family: Arial, sans-serif;"><tspan x="76" y="238.5">Инструменты пользователя: toggle_airplane_mode / </tspan><tspan x="76" y="253.5">toggle_roaming</tspan></text><text class="l c" x="76" y="266" transform="translate(76 266) scale(1 0.5) translate(-76 -266)" style="font-family: Arial, sans-serif;"><tspan x="76" y="266">check_status_bar / run_speed_test</tspan></text><rect x="450" y="182" width="370" height="98" rx="5" fill="#ffffff" stroke="#666666" stroke-width="1.5"/><text class="t m" x="635" y="200" font-weight="bold" transform="translate(635 200) scale(1 0.5) translate(-635 -200)" style="font-family: Arial, sans-serif;"><tspan x="635" y="200">БД оператора</tspan></text><text class="l n" x="466" y="222" transform="translate(466 222) scale(1 0.5) translate(-466 -222)" style="font-family: Arial, sans-serif;"><tspan x="466" y="222">Клиент C1001 · линии L1001/L1002/L1003 · тариф · счёт</tspan></text><text class="l c" x="466" y="246" transform="translate(466 246) scale(1 0.5) translate(-466 -246)" style="font-family: Arial, sans-serif;"><tspan x="466" y="238.5">Инструменты агента: get_customer_by_phone / </tspan><tspan x="466" y="253.5">get_data_usage</tspan></text><text class="l c" x="466" y="266" transform="translate(466 266) scale(1 0.5) translate(-466 -266)" style="font-family: Arial, sans-serif;"><tspan x="466" y="266">enable_roaming / refuel_data</tspan></text><line x1="175" y1="106" x2="175" y2="178" stroke="#333333" stroke-width="2" marker-end="url(#ah)"/><line x1="705" y1="106" x2="705" y2="178" stroke="#333333" stroke-width="2" marker-end="url(#ah)"/><rect x="40" y="306" width="800" height="34" rx="5" fill="#ffffff" stroke="#666666" stroke-width="1.5" stroke-dasharray="5 4"/><text class="t n" x="440" y="323" transform="translate(440 323) scale(1 0.5) translate(-440 -323)" style="font-family: Arial, sans-serif;"><tspan x="440" y="315.5">После toggle_roaming среда меняется; агент должен снова вызвать инструмент — так проверяется, прочитан ли результат действия </tspan><tspan x="440" y="330.5">пользователя</tspan></text><rect x="40" y="356" width="800" height="136" rx="6" fill="#f0f0f0" stroke="#333333" stroke-width="2"/><text class="t h" x="440" y="376" transform="translate(440 376) scale(1 0.5) translate(-440 -376)" style="font-family: Arial, sans-serif;"><tspan x="440" y="376">После задачи: четыре уровня проверок + агрегация</tspan></text><rect x="56" y="392" width="182" height="62" rx="5" fill="#ffffff" stroke="#666666" stroke-width="1.5"/><text class="t m" x="147" y="408" transform="translate(147 408) scale(1 0.5) translate(-147 -408)" style="font-family: Arial, sans-serif;"><tspan x="147" y="408">env_assertions</tspan></text><text class="t n" x="147" y="428" transform="translate(147 428) scale(1 0.5) translate(-147 -428)" style="font-family: Arial, sans-serif;"><tspan x="147" y="420.5">Мобильные данные </tspan><tspan x="147" y="435.5">доступны</tspan></text><text class="t n" x="147" y="444" transform="translate(147 444) scale(1 0.5) translate(-147 -444)" style="font-family: Arial, sans-serif;"><tspan x="147" y="444">Скорость ≥ 200 / excellent</tspan></text><rect x="254" y="392" width="182" height="62" rx="5" fill="#ffffff" stroke="#666666" stroke-width="1.5"/><text class="t m" x="345" y="408" transform="translate(345 408) scale(1 0.5) translate(-345 -408)" style="font-family: Arial, sans-serif;"><tspan x="345" y="408">actions</tspan></text><text class="t n" x="345" y="428" transform="translate(345 428) scale(1 0.5) translate(-345 -428)" style="font-family: Arial, sans-serif;"><tspan x="345" y="428">toggle_airplane_mode</tspan></text><text class="t n" x="345" y="444" transform="translate(345 444) scale(1 0.5) translate(-345 -444)" style="font-family: Arial, sans-serif;"><tspan x="345" y="444">requestor должен быть user</tspan></text><rect x="452" y="392" width="182" height="62" rx="5" fill="#ffffff" stroke="#666666" stroke-width="1.5"/><text class="t m" x="543" y="408" transform="translate(543 408) scale(1 0.5) translate(-543 -408)" style="font-family: Arial, sans-serif;"><tspan x="543" y="408">communicate_info</tspan></text><text class="t n" x="543" y="428" transform="translate(543 428) scale(1 0.5) translate(-543 -428)" style="font-family: Arial, sans-serif;"><tspan x="543" y="420.5">Сообщены ли нужные </tspan><tspan x="543" y="435.5">сведения</tspan></text><text class="t n" x="543" y="444" transform="translate(543 444) scale(1 0.5) translate(-543 -444)" style="font-family: Arial, sans-serif;"><tspan x="543" y="444">В этой задаче null</tspan></text><rect x="650" y="392" width="182" height="62" rx="5" fill="#ffffff" stroke="#666666" stroke-width="1.5"/><text class="t m" x="741" y="408" transform="translate(741 408) scale(1 0.5) translate(-741 -408)" style="font-family: Arial, sans-serif;"><tspan x="741" y="408">nl_assertions</tspan></text><text class="t n" x="741" y="428" transform="translate(741 428) scale(1 0.5) translate(-741 -428)" style="font-family: Arial, sans-serif;"><tspan x="741" y="420.5">Оценка естественного </tspan><tspan x="741" y="435.5">языка</tspan></text><text class="t n" x="741" y="444" transform="translate(741 444) scale(1 0.5) translate(-741 -444)" style="font-family: Arial, sans-serif;"><tspan x="741" y="444">В этой задаче null</tspan></text><text class="t n" x="440" y="474" transform="translate(440 474) scale(1 0.5) translate(-440 -474)" style="font-family: Arial, sans-serif;"><tspan x="440" y="466.5">reward_basis = ["ENV_ASSERTION"] → учитывается лишь первый уровень; остальные записываются, но не влияют на </tspan><tspan x="440" y="481.5">вознаграждение</tspan></text></g></svg>
